<?xml version="1.0" encoding="UTF-8" standalone="no"?>
<svg xmlns="http://www.w3.org/2000/svg" width="512" height="512" viewBox="0 0 512 512">
  <g>
    <!-- Wooden fish body -->
    <ellipse cx="256" cy="256" rx="200" ry="150" fill="#8B4513" stroke="#5D2906" stroke-width="8"/>
    
    <!-- Fish scales pattern -->
    <path d="M156 206 Q 256 156, 356 206" fill="none" stroke="#5D2906" stroke-width="4" />
    <path d="M156 256 Q 256 206, 356 256" fill="none" stroke="#5D2906" stroke-width="4" />
    <path d="M156 306 Q 256 256, 356 306" fill="none" stroke="#5D2906" stroke-width="4" />
    
    <!-- Fish eye -->
    <circle cx="256" cy="206" r="20" fill="#5D2906" />
    <circle cx="256" cy="206" r="10" fill="#000" />
    <circle cx="252" cy="202" r="5" fill="#FFF" />
    
    <!-- Wooden texture lines -->
    <line x1="156" y1="226" x2="356" y2="226" stroke="#5D2906" stroke-width="2" />
    <line x1="156" y1="276" x2="356" y2="276" stroke="#5D2906" stroke-width="2" />
    <line x1="206" y1="156" x2="206" y2="356" stroke="#5D2906" stroke-width="2" />
    <line x1="256" y1="156" x2="256" y2="356" stroke="#5D2906" stroke-width="2" />
    <line x1="306" y1="156" x2="306" y2="356" stroke="#5D2906" stroke-width="2" />
    
    <!-- Wooden fish stick -->
    <rect x="386" y="216" width="60" height="20" rx="5" ry="5" fill="#8B4513" stroke="#5D2906" stroke-width="4" />
    <circle cx="386" cy="226" r="10" fill="#8B4513" stroke="#5D2906" stroke-width="4" />
  </g>
</svg>
